<svg width="88" height="88" viewBox="0 0 88 88" fill="none" xmlns="http://www.w3.org/2000/svg">
<g clip-path="url(#clip0_605_320)">
<path d="M79.2 0H8.8C3.9399 0 0 3.9399 0 8.8V79.2C0 84.0601 3.9399 88 8.8 88H79.2C84.0601 88 88 84.0601 88 79.2V8.8C88 3.9399 84.0601 0 79.2 0Z" fill="#42A5F5"/>
<path d="M24.169 17.6L22.3275 27.3974H60.8281L59.5814 33.7334H21.1094L19.2396 43.5014H57.74L55.587 54.6774L40.0622 59.9866L26.6054 54.6774L27.5403 49.8666H18.078L15.84 61.6L38.079 70.4L63.7176 61.6L67.1172 43.912L67.7971 40.3626L72.16 17.6H24.169Z" fill="white"/>
</g>
<defs>
<clipPath id="clip0_605_320">
<rect width="88" height="88" fill="white"/>
</clipPath>
</defs>
</svg>
