<svg width="88" height="88" viewBox="0 0 88 88" fill="none" xmlns="http://www.w3.org/2000/svg">
<g clip-path="url(#clip0_605_298)">
<path d="M79.2 0H8.8C3.9399 0 0 3.9399 0 8.8V79.2C0 84.0601 3.9399 88 8.8 88H79.2C84.0601 88 88 84.0601 88 79.2V8.8C88 3.9399 84.0601 0 79.2 0Z" fill="#61DAFB"/>
<path d="M45.8779 66.3449C45.3253 65.8644 44.7462 65.384 44.1936 64.8507C43.7518 65.2502 43.3382 65.6233 42.8965 65.9982C37.4299 70.6129 31.7979 72.5331 28.4645 70.6657C25.2349 68.8793 24.207 63.5976 25.5042 56.9571C25.6427 56.2367 25.8081 55.5162 26.0005 54.7958C25.4214 54.6356 24.8688 54.4755 24.3162 54.2889C17.4434 51.9974 12.9149 48.2644 12.9149 44.5297C12.9149 40.9305 17.1389 37.4352 23.7371 35.2017C24.4834 34.9624 25.256 34.7212 26.0568 34.5083C25.8632 33.8148 25.7259 33.1478 25.5869 32.5072C24.207 25.754 25.1733 20.3684 28.431 18.5539C31.8261 16.6337 37.4598 18.6876 43.1182 23.5136C43.4491 23.8075 43.7818 24.1278 44.139 24.4464C44.667 23.9676 45.1598 23.4872 45.6861 23.0595C51.0418 18.5539 56.371 16.6601 59.627 18.4747C63.0221 20.3403 64.0165 26.1025 62.4976 33.2217C62.4149 33.6758 62.304 34.1017 62.1949 34.5558C62.8848 34.7424 63.5747 34.9553 64.2101 35.17C70.9474 37.4105 75.3086 40.9041 75.2541 44.5843C75.2541 48.3454 70.5883 52.052 63.4374 54.3452C63.0502 54.4526 62.6648 54.5846 62.2776 54.6972C62.443 55.2252 62.5539 55.7638 62.6648 56.2971C64.101 63.2051 62.9957 68.8582 59.6552 70.7291C58.7632 71.2113 57.7614 71.4538 56.7477 71.4331C53.6818 71.4208 49.7939 69.5956 45.8779 66.3449ZM51.2829 56.5576C49.686 58.8037 47.9428 60.9421 46.0645 62.9587C46.5925 63.4656 47.1205 63.9196 47.6379 64.3456C52.1928 68.1331 56.3886 69.5464 58.3493 68.4516C58.9334 68.0083 59.4174 67.4467 59.7696 66.8034C60.1216 66.1601 60.334 65.4496 60.3926 64.7187C60.792 62.0725 60.6795 59.3743 60.0618 56.7705C59.979 56.29 59.8682 55.8113 59.7309 55.3044C56.9434 55.8954 54.1219 56.314 51.2829 56.5576ZM28.1477 57.4112C27.016 63.0907 27.845 67.3323 29.8038 68.4252C30.5048 68.6901 31.2518 68.8123 32.0007 68.7848C32.7496 68.7573 33.4854 68.5806 34.1651 68.2651C36.7305 67.2971 39.0977 65.8692 41.1506 64.0516C41.5642 63.7313 41.9514 63.3582 42.365 62.9851C40.4455 60.9674 38.6566 58.8294 37.0093 56.584C34.1808 56.3692 31.3687 55.9771 28.5894 55.41C28.431 56.1035 28.2938 56.7705 28.1547 57.4112H28.1477ZM44.2147 61.1441C45.4291 59.8364 46.6435 58.3968 47.8597 56.7969C46.6453 56.8497 45.3746 56.8761 44.1056 56.8761C42.8366 56.8761 41.6416 56.8497 40.4606 56.7969C41.6397 58.3091 42.8949 59.7601 44.2218 61.1441H44.2147ZM38.4243 35.1155C37.3683 36.5816 36.3546 38.1286 35.3883 39.7566C34.4221 41.3564 33.5386 42.9844 32.7378 44.6107C33.5667 46.2105 34.4502 47.8385 35.4165 49.4912C36.3827 51.091 37.4053 52.6592 38.4542 54.1569C40.2758 54.2643 42.1819 54.3171 44.1144 54.3171C46.075 54.3171 47.9864 54.2643 49.8291 54.1305C50.8235 52.6644 51.8443 51.091 52.8106 49.463C53.7768 47.835 54.6867 46.1824 55.4875 44.5825C54.6867 43.0091 53.775 41.3828 52.8106 39.7548C51.8461 38.1268 50.8235 36.5868 49.801 35.1137C47.9512 34.98 46.0451 34.899 44.1144 34.899C42.1837 34.899 40.2741 34.9817 38.4243 35.1155ZM29.3146 52.9566C31.2125 53.3484 33.1294 53.6421 35.0574 53.8366C34.3939 52.8228 33.7322 51.8091 33.0968 50.7425C32.4896 49.7024 31.8824 48.6622 31.3368 47.622C30.5675 49.3627 29.8925 51.1434 29.3146 52.9566ZM55.1267 50.7161C54.4914 51.7827 53.856 52.7964 53.2224 53.7838C55.1792 53.5622 57.1234 53.2421 59.048 52.8246C58.4461 51.0183 57.7456 49.2462 56.9501 47.5164C56.3705 48.5853 55.7626 49.6518 55.1267 50.7161ZM24.5925 37.6499C18.9605 39.57 15.5654 42.3702 15.5654 44.5561C15.6836 45.2797 15.9506 45.9708 16.3496 46.5857C16.7485 47.2007 17.2708 47.7262 17.8834 48.1289C20.0763 49.7891 22.5428 51.0524 25.1715 51.8619C25.6678 52.022 26.1923 52.1558 26.7168 52.316C27.5695 49.6823 28.5937 47.1071 29.7827 44.6072C28.5916 42.149 27.5764 39.6095 26.745 37.0075C26.001 37.1953 25.2836 37.4093 24.5925 37.6499ZM58.4672 44.5561C59.6899 47.0236 60.7413 49.5723 61.6141 52.184C61.9661 52.0784 62.3322 51.971 62.6701 51.8636C68.8301 49.8907 72.637 46.8776 72.6651 44.5297C72.6651 42.3438 69.131 39.5155 63.36 37.5953C62.781 37.4088 62.1456 37.2222 61.5102 37.0356C60.6661 39.608 59.6496 42.1206 58.4672 44.5561ZM55.0986 38.4225C55.7339 39.4891 56.3411 40.5345 56.892 41.5694C57.6564 39.8764 58.3199 38.1399 58.879 36.3686C57.0838 35.9691 55.183 35.6488 53.1925 35.4094C53.8578 36.395 54.4931 37.3824 55.1003 38.4225H55.0986ZM29.341 36.3422C29.8936 38.0476 30.5554 39.783 31.3298 41.5694C31.8824 40.5292 32.4896 39.4891 33.0898 38.4489C33.6899 37.4088 34.3323 36.395 34.9941 35.4094C33.0141 35.6488 31.1362 35.9691 29.341 36.3422ZM47.425 25.0078C46.955 25.4073 46.4851 25.835 46.017 26.2609C47.9241 28.2495 49.6885 30.3703 51.297 32.6075C54.101 32.8518 56.8858 33.2793 59.6341 33.887C59.745 33.4875 59.8277 33.0862 59.9104 32.6867C61.2075 26.5531 60.4085 21.8592 58.3088 20.687C57.8405 20.4519 57.3207 20.3375 56.797 20.3544C54.5354 20.3561 51.0752 21.9472 47.425 25.0078ZM29.7563 20.768C27.7957 21.8609 27.023 26.2398 28.1829 31.995C28.3202 32.6092 28.4592 33.227 28.6246 33.8606C31.3759 33.2752 34.16 32.8567 36.9618 32.6075C38.5741 30.3675 40.3457 28.2464 42.2629 26.2609C41.9602 25.967 41.6275 25.7012 41.3248 25.4337C37.4774 22.1408 33.7885 20.4019 31.3773 20.4019C30.8146 20.3834 30.2565 20.5096 29.7563 20.768ZM47.8122 32.3998C46.6696 30.9015 45.4439 29.4683 44.1408 28.1072C42.8982 29.4131 41.6557 30.8545 40.4448 32.3998C41.6592 32.347 42.8736 32.3206 44.1162 32.3206C45.3587 32.3206 46.596 32.3417 47.8122 32.3998ZM38.588 44.6688C38.5495 43.5573 38.8437 42.4598 39.4331 41.5168C40.0228 40.5738 40.8804 39.8284 41.8964 39.3763C42.9125 38.9241 44.0403 38.7858 45.1356 38.9792C46.2306 39.1725 47.2432 39.6885 48.0429 40.4609C48.8428 41.2336 49.3937 42.2276 49.6248 43.3153C49.8559 44.4032 49.7566 45.5352 49.34 46.5662C48.9234 47.5972 48.2082 48.4804 47.2863 49.1022C46.3642 49.724 45.2776 50.0561 44.1654 50.0561C43.4445 50.0704 42.728 49.9419 42.057 49.6782C41.3859 49.4146 40.7736 49.0209 40.2552 48.5196C39.7369 48.0186 39.3228 47.4198 39.0366 46.7581C38.7506 46.0963 38.598 45.3844 38.588 44.6635V44.6688Z" fill="#E6E6E6"/>
</g>
<defs>
<clipPath id="clip0_605_298">
<rect width="88" height="88" fill="white"/>
</clipPath>
</defs>
</svg>
