<svg width="88" height="88" viewBox="0 0 88 88" fill="none" xmlns="http://www.w3.org/2000/svg">
<g clip-path="url(#clip0_653_229)">
<path d="M88 0H0V88H88V0Z" fill="white"/>
<path d="M45 64.54C44.7686 64.5347 44.542 64.4729 44.34 64.36L42.24 63.11C41.92 62.94 42.08 62.87 42.17 62.84C42.5239 62.7504 42.8614 62.6052 43.17 62.41C43.1943 62.396 43.2219 62.3886 43.25 62.3886C43.2781 62.3886 43.3057 62.396 43.33 62.41L44.94 63.41C44.9694 63.425 45.002 63.4328 45.035 63.4328C45.068 63.4328 45.1006 63.425 45.13 63.41L51.38 59.73C51.4095 59.7131 51.4337 59.6882 51.4496 59.6581C51.4655 59.628 51.4726 59.594 51.47 59.56V52.26C51.4726 52.2261 51.4655 52.1921 51.4496 52.162C51.4337 52.1319 51.4095 52.107 51.38 52.09L45.06 48.45C45.0306 48.4351 44.998 48.4273 44.965 48.4273C44.932 48.4273 44.8994 48.4351 44.87 48.45L38.56 52.09C38.5319 52.1085 38.5089 52.1338 38.4932 52.1635C38.4775 52.1932 38.4695 52.2264 38.47 52.26V59.56C38.4695 59.5937 38.4775 59.6269 38.4932 59.6566C38.5089 59.6863 38.5319 59.7115 38.56 59.73L40.28 60.73C41.22 61.2 41.8 60.65 41.8 60.09V52.91C41.8013 52.8851 41.8075 52.8606 41.8182 52.838C41.829 52.8155 41.8441 52.7953 41.8626 52.7785C41.8812 52.7618 41.9029 52.7489 41.9265 52.7406C41.9501 52.7323 41.975 52.7287 42 52.73H42.81C42.8353 52.7286 42.8607 52.7325 42.8844 52.7415C42.9081 52.7506 42.9296 52.7645 42.9476 52.7825C42.9655 52.8004 42.9795 52.8219 42.9885 52.8456C42.9975 52.8694 43.0014 52.8947 43 52.92V60.11C43.0365 60.37 43.0143 60.6348 42.9352 60.8852C42.8561 61.1355 42.722 61.3649 42.5427 61.5567C42.3634 61.7484 42.1435 61.8976 41.899 61.9934C41.6546 62.0891 41.3918 62.129 41.13 62.11C40.6172 62.1236 40.1111 61.9918 39.67 61.73L38 60.73C37.7957 60.6133 37.626 60.4443 37.5083 60.2406C37.3906 60.0368 37.3291 59.8054 37.33 59.57V52.29C37.3291 52.0547 37.3906 51.8233 37.5083 51.6195C37.626 51.4157 37.7957 51.2468 38 51.13L44.31 47.48C44.5148 47.3715 44.7432 47.3147 44.975 47.3147C45.2068 47.3147 45.4351 47.3715 45.64 47.48L52 51.13C52.203 51.2484 52.3715 51.4176 52.489 51.6211C52.6065 51.8245 52.6689 52.0551 52.67 52.29V59.58C52.6672 59.8133 52.604 60.0418 52.4866 60.2433C52.3691 60.4449 52.2015 60.6126 52 60.73L45.69 64.38C45.4753 64.4856 45.2392 64.5403 45 64.54ZM47 59.54C44.23 59.54 43.66 58.27 43.66 57.2C43.66 57.1496 43.68 57.1013 43.7156 57.0657C43.7513 57.0301 43.7996 57.01 43.85 57.01H44.67C44.6926 57.0072 44.7156 57.0092 44.7374 57.016C44.7592 57.0227 44.7793 57.034 44.7963 57.0492C44.8133 57.0643 44.827 57.083 44.8362 57.1038C44.8455 57.1247 44.8502 57.1472 44.85 57.17C44.97 58 45.34 58.42 47.02 58.42C48.35 58.42 48.91 58.12 48.91 57.42C48.91 57.01 48.76 56.71 46.68 56.51C44.96 56.33 43.88 55.95 43.88 54.58C43.88 53.21 44.96 52.53 46.76 52.53C48.76 52.53 49.76 53.23 49.91 54.75C49.9119 54.8014 49.894 54.8515 49.86 54.89C49.8451 54.9077 49.8268 54.9221 49.8062 54.9324C49.7855 54.9427 49.763 54.9487 49.74 54.95H48.91C48.8706 54.9472 48.8331 54.9323 48.8026 54.9072C48.7722 54.8821 48.7503 54.8481 48.74 54.81C48.55 53.94 48.06 53.66 46.74 53.66C45.42 53.66 45.11 54.16 45.11 54.54C45.11 54.92 45.32 55.14 47.28 55.4C49.24 55.66 50.14 56.01 50.14 57.4C50.14 58.79 48.94 59.52 46.93 59.52L47 59.54Z" fill="#539E43"/>
<path d="M25.4 36.01C25.3993 35.8663 25.3599 35.7255 25.286 35.6024C25.2121 35.4792 25.1064 35.3782 24.98 35.31L18.28 31.45C18.165 31.3896 18.0393 31.3523 17.91 31.34H17.85C17.7195 31.3459 17.5925 31.3836 17.48 31.45L10.78 35.31C10.6536 35.3782 10.5479 35.4792 10.474 35.6024C10.4001 35.7255 10.3607 35.8663 10.36 36.01V46.39C10.36 46.4605 10.3796 46.5297 10.4167 46.5898C10.4538 46.6499 10.5069 46.6984 10.57 46.73C10.6314 46.7778 10.7071 46.8038 10.785 46.8038C10.8629 46.8038 10.9385 46.7778 11 46.73L15 44.46C15.1225 44.3881 15.2245 44.286 15.2963 44.1635C15.3681 44.0409 15.4073 43.902 15.41 43.76V38.9C15.4115 38.759 15.4502 38.621 15.5222 38.4998C15.5942 38.3787 15.6969 38.2787 15.82 38.21L17.51 37.21C17.6386 37.1388 17.783 37.101 17.93 37.1C18.0677 37.0996 18.2028 37.1377 18.32 37.21L20.01 38.21C20.1356 38.2765 20.2409 38.3758 20.3148 38.4972C20.3888 38.6187 20.4285 38.7578 20.43 38.9V43.73C20.4308 43.8724 20.4691 44.0121 20.541 44.135C20.613 44.2579 20.7161 44.3596 20.84 44.43L24.84 46.7C24.9031 46.7389 24.9758 46.7595 25.05 46.7595C25.1242 46.7595 25.1969 46.7389 25.26 46.7C25.3205 46.6662 25.371 46.6169 25.4061 46.5571C25.4413 46.4974 25.4599 46.4293 25.46 46.36V36.01H25.4Z" fill="#333333"/>
<path d="M57.64 21.73C57.5794 21.7 57.5126 21.6844 57.445 21.6844C57.3774 21.6844 57.3106 21.7 57.25 21.73C57.1868 21.7641 57.134 21.8146 57.097 21.8762C57.0601 21.9378 57.0404 22.0082 57.04 22.08V32.35C57.0393 32.4001 57.0257 32.4492 57.0004 32.4924C56.9751 32.5356 56.9391 32.5716 56.8958 32.5968C56.8525 32.6219 56.8034 32.6355 56.7533 32.636C56.7033 32.6366 56.6539 32.6242 56.61 32.6L54.94 31.6C54.8162 31.5308 54.6768 31.4945 54.535 31.4945C54.3932 31.4945 54.2538 31.5308 54.13 31.6L47.42 35.48C47.2969 35.5487 47.1942 35.6487 47.1222 35.7699C47.0502 35.891 47.0115 36.0291 47.01 36.17V43.91C47.0127 44.052 47.0519 44.191 47.1237 44.3135C47.1955 44.4361 47.2975 44.5382 47.42 44.61L54.13 48.48C54.2538 48.5492 54.3932 48.5855 54.535 48.5855C54.6768 48.5855 54.8162 48.5492 54.94 48.48L61.65 44.61C61.7725 44.5382 61.8746 44.4361 61.9464 44.3135C62.0181 44.191 62.0573 44.052 62.06 43.91V24.66C62.061 24.5159 62.0235 24.3741 61.9515 24.2493C61.8794 24.1245 61.7753 24.0212 61.65 23.95L57.65 21.72L57.64 21.73ZM57 41.4C57.0002 41.4361 56.9911 41.4716 56.9736 41.5031C56.9561 41.5346 56.9307 41.5611 56.9 41.58L54.61 42.91C54.5769 42.9246 54.5412 42.9322 54.505 42.9322C54.4689 42.9322 54.4331 42.9246 54.4 42.91L52.11 41.58C52.0786 41.5619 52.0527 41.5356 52.0351 41.5039C52.0175 41.4722 52.0088 41.4363 52.01 41.4V38.73C52.0069 38.6948 52.0149 38.6595 52.0328 38.629C52.0508 38.5986 52.0777 38.5744 52.11 38.56L54.4 37.23C54.4331 37.2154 54.4689 37.2079 54.505 37.2079C54.5412 37.2079 54.5769 37.2154 54.61 37.23L56.9 38.56C56.9293 38.578 56.9538 38.6029 56.9712 38.6325C56.9886 38.6622 56.9985 38.6957 57 38.73V41.39V41.4Z" fill="#333333"/>
<path d="M80 38.73C80.1215 38.6587 80.2218 38.5562 80.2903 38.4331C80.3589 38.31 80.3933 38.1708 80.39 38.03V36.1C80.3896 35.9612 80.3535 35.8248 80.2852 35.704C80.2169 35.5832 80.1187 35.4819 80 35.41L73.34 31.54C73.2162 31.4708 73.0768 31.4344 72.935 31.4344C72.7932 31.4344 72.6538 31.4708 72.53 31.54L65.82 35.42C65.6962 35.4903 65.593 35.592 65.521 35.7149C65.4491 35.8378 65.4108 35.9775 65.41 36.12V43.85C65.4108 43.9924 65.4491 44.1321 65.521 44.255C65.593 44.3779 65.6962 44.4796 65.82 44.55L72.48 48.35C72.6001 48.4193 72.7363 48.4558 72.875 48.4558C73.0137 48.4558 73.1499 48.4193 73.27 48.35L77.27 46.1C77.3321 46.0654 77.3835 46.0145 77.4187 45.9528C77.454 45.8911 77.4717 45.821 77.47 45.75C77.4699 45.6806 77.4513 45.6126 77.4162 45.5528C77.381 45.4931 77.3305 45.4437 77.27 45.41L70.54 41.53C70.4781 41.4943 70.4264 41.4434 70.3896 41.3822C70.3529 41.3209 70.3324 41.2513 70.33 41.18V38.73C70.3293 38.6579 70.3485 38.5871 70.3856 38.5253C70.4226 38.4635 70.4761 38.4132 70.54 38.38L72.64 37.18C72.7012 37.1408 72.7723 37.1199 72.845 37.1199C72.9177 37.1199 72.9888 37.1408 73.05 37.18L75.16 38.38C75.2194 38.4175 75.2687 38.4691 75.3036 38.5301C75.3384 38.5911 75.3578 38.6597 75.36 38.73V40.63C75.3604 40.7018 75.38 40.7722 75.417 40.8338C75.454 40.8954 75.5068 40.9459 75.57 40.98C75.6312 41.0192 75.7023 41.04 75.775 41.04C75.8477 41.04 75.9188 41.0192 75.98 40.98L80 38.73Z" fill="#333333"/>
<path d="M72.8 38.32C72.8239 38.3049 72.8517 38.2969 72.88 38.2969C72.9083 38.2969 72.936 38.3049 72.96 38.32L74.24 39.06C74.2645 39.0742 74.2849 39.0946 74.2989 39.1192C74.313 39.1438 74.3202 39.1717 74.32 39.2V40.73C74.3202 40.7583 74.313 40.7862 74.2989 40.8108C74.2849 40.8354 74.2645 40.8558 74.24 40.87L73 41.58C72.976 41.5951 72.9483 41.6031 72.92 41.6031C72.8917 41.6031 72.8639 41.5951 72.84 41.58L71.56 40.83C71.5354 40.8158 71.5151 40.7954 71.5011 40.7708C71.487 40.7462 71.4797 40.7183 71.48 40.69V39.2C71.4797 39.1717 71.487 39.1438 71.5011 39.1192C71.5151 39.0946 71.5354 39.0742 71.56 39.06L72.84 38.32H72.8Z" fill="#539E43"/>
<path d="M36.61 31.5799C36.4895 31.5067 36.3511 31.4679 36.21 31.4679C36.0689 31.4679 35.9306 31.5067 35.81 31.5799L29.15 35.4199C29.0259 35.4891 28.9231 35.5909 28.8526 35.7143C28.7821 35.8376 28.7466 35.9779 28.75 36.1199V43.8199C28.7507 43.9612 28.788 44.0999 28.858 44.2225C28.9281 44.3451 29.0287 44.4476 29.15 44.5199L35.81 48.3599C35.9306 48.4332 36.0689 48.472 36.21 48.472C36.3511 48.472 36.4895 48.4332 36.61 48.3599L43.28 44.5199C43.4015 44.4486 43.5018 44.3461 43.5703 44.2231C43.6389 44.1 43.6733 43.9608 43.67 43.8199V36.1199C43.6694 35.9798 43.6333 35.8422 43.5651 35.7198C43.4969 35.5974 43.3988 35.4942 43.28 35.4199L36.61 31.5799V31.5799Z" fill="url(#paint0_linear_653_229)"/>
<path d="M43.29 35.42L36.6 31.58C36.5357 31.5403 36.4644 31.5132 36.39 31.5L28.89 44.35C28.956 44.4214 29.0298 44.4851 29.11 44.54L35.81 48.38C35.9007 48.4345 36.0017 48.4698 36.1067 48.4836C36.2116 48.4973 36.3183 48.4893 36.42 48.46L43.42 35.58C43.3648 35.5215 43.3046 35.4679 43.24 35.42H43.29Z" fill="url(#paint1_linear_653_229)"/>
<path fill-rule="evenodd" clip-rule="evenodd" d="M43.31 44.5201C43.5003 44.406 43.6398 44.2236 43.7 44.0101L36.36 31.4801C36.1642 31.444 35.9618 31.4794 35.79 31.5801L29.15 35.4101L36.31 48.4701C36.4149 48.4601 36.5169 48.4296 36.61 48.3801L43.31 44.5201Z" fill="url(#paint2_linear_653_229)"/>
<path fill-rule="evenodd" clip-rule="evenodd" d="M43.31 44.52L36.63 48.36C36.5356 48.4081 36.4345 48.4419 36.33 48.46L36.46 48.7L43.86 44.41V44.31L43.67 44C43.6535 44.1084 43.6126 44.2115 43.5502 44.3016C43.4878 44.3918 43.4056 44.4664 43.31 44.52Z" fill="url(#paint3_linear_653_229)"/>
<path fill-rule="evenodd" clip-rule="evenodd" d="M43.31 44.52L36.63 48.36C36.5356 48.4081 36.4345 48.4419 36.33 48.46L36.46 48.7L43.86 44.41V44.31L43.67 44C43.6535 44.1084 43.6126 44.2115 43.5502 44.3016C43.4878 44.3918 43.4056 44.4664 43.31 44.52Z" fill="url(#paint4_linear_653_229)"/>
</g>
<defs>
<linearGradient id="paint0_linear_653_229" x1="37.1248" y1="32.221" x2="29.2557" y2="43.731" gradientUnits="userSpaceOnUse">
<stop stop-color="#41873F"/>
<stop offset="0.33" stop-color="#418B3D"/>
<stop offset="0.64" stop-color="#419637"/>
<stop offset="0.93" stop-color="#3FA92D"/>
<stop offset="1" stop-color="#3FAE2A"/>
</linearGradient>
<linearGradient id="paint1_linear_653_229" x1="30.4725" y1="42.3162" x2="48.8719" y2="32.4545" gradientUnits="userSpaceOnUse">
<stop offset="0.14" stop-color="#41873F"/>
<stop offset="0.4" stop-color="#54A044"/>
<stop offset="0.71" stop-color="#66B848"/>
<stop offset="0.91" stop-color="#6CC04A"/>
</linearGradient>
<linearGradient id="paint2_linear_653_229" x1="28.0114" y1="41.648" x2="43.9609" y2="41.648" gradientUnits="userSpaceOnUse">
<stop offset="0.09" stop-color="#6CC04A"/>
<stop offset="0.29" stop-color="#66B848"/>
<stop offset="0.6" stop-color="#54A044"/>
<stop offset="0.86" stop-color="#41873F"/>
</linearGradient>
<linearGradient id="paint3_linear_653_229" x1="32.187" y1="44.1099" x2="47.5898" y2="44.1099" gradientUnits="userSpaceOnUse">
<stop offset="0.09" stop-color="#6CC04A"/>
<stop offset="0.29" stop-color="#66B848"/>
<stop offset="0.6" stop-color="#54A044"/>
<stop offset="0.86" stop-color="#41873F"/>
</linearGradient>
<linearGradient id="paint4_linear_653_229" x1="49.7902" y1="31.7511" x2="45.9569" y2="52.3463" gradientUnits="userSpaceOnUse">
<stop stop-color="#41873F"/>
<stop offset="0.33" stop-color="#418B3D"/>
<stop offset="0.64" stop-color="#419637"/>
<stop offset="0.93" stop-color="#3FA92D"/>
<stop offset="1" stop-color="#3FAE2A"/>
</linearGradient>
<clipPath id="clip0_653_229">
<rect width="88" height="88" rx="10" fill="white"/>
</clipPath>
</defs>
</svg>
