<svg width="88" height="88" viewBox="0 0 88 88" fill="none" xmlns="http://www.w3.org/2000/svg">
<g clip-path="url(#clip0_651_226)">
<path d="M86 0H2C0.895431 0 0 0.895429 0 2V86C0 87.1046 0.895429 88 2 88H86C87.1046 88 88 87.1046 88 86V2C88 0.895431 87.1046 0 86 0Z" fill="#F71963"/>
<path d="M60.4604 27.544H31.548C31.0361 27.5395 30.5319 27.668 30.0846 27.9168C29.6373 28.1657 29.2623 28.5264 28.9962 28.9636C28.7301 29.4009 28.5821 29.8997 28.5666 30.4114C28.5512 30.923 28.6688 31.4299 28.908 31.8824L31.812 37.3296H26.5672C26.2362 37.3271 25.9102 37.4105 25.621 37.5717C25.3319 37.7328 25.0894 37.9662 24.9174 38.249C24.7454 38.5318 24.6497 38.8545 24.6396 39.1853C24.6296 39.5162 24.7055 39.844 24.86 40.1368L34.166 57.64C34.331 57.9481 34.5765 58.2057 34.8764 58.3853C35.1763 58.5649 35.5193 58.6597 35.8688 58.6597C36.2183 58.6597 36.5613 58.5649 36.8612 58.3853C37.161 58.2057 37.4066 57.9481 37.5716 57.64L40.0972 52.91L43.2696 58.8764C43.5227 59.3574 43.9024 59.7601 44.3676 60.041C44.8329 60.3219 45.3661 60.4704 45.9096 60.4704C46.4531 60.4704 46.9863 60.3219 47.4515 60.041C47.9168 59.7601 48.2965 59.3574 48.5496 58.8764L63.0388 31.7636C63.2725 31.324 63.3882 30.8312 63.3745 30.3334C63.3607 29.8357 63.2181 29.3501 62.9605 28.924C62.7029 28.4979 62.3391 28.1459 61.9048 27.9025C61.4704 27.6591 60.9803 27.5325 60.4824 27.5352M47.4716 39.1292L41.2236 50.82C41.1147 51.0254 40.9519 51.1973 40.7528 51.3172C40.5512 51.435 40.3219 51.4973 40.0884 51.4976C39.856 51.4988 39.6277 51.4362 39.4283 51.3168C39.229 51.1973 39.0662 51.0255 38.9576 50.82L32.7668 39.16C32.6648 38.9646 32.6134 38.7468 32.6172 38.5264C32.6263 38.3075 32.6898 38.0943 32.802 37.906C32.9166 37.7231 33.0754 37.5719 33.2638 37.4666C33.4522 37.3612 33.6641 37.305 33.88 37.3032H46.354C46.5685 37.3035 46.7793 37.3596 46.9656 37.466C47.1536 37.5699 47.311 37.7212 47.4222 37.905C47.5334 38.0888 47.5944 38.2985 47.5992 38.5132C47.6067 38.7278 47.5566 38.9405 47.454 39.1292" fill="white"/>
</g>
<defs>
<clipPath id="clip0_651_226">
<rect width="88" height="88" rx="10" fill="white"/>
</clipPath>
</defs>
</svg>
